<mxfile><diagram id="2" name="Page-1">
<mxGraphModel dx="1422" dy="797" grid="1" gridSize="10" guides="1" tooltips="1" connect="1" arrows="1" fold="1" page="1" pageScale="1" pageWidth="827" pageHeight="1169" math="0" shadow="0">
  <root>
    <!-- Frontend Components -->
    <mxCell id="frontend" value="Frontend" style="rounded=1;whiteSpace=wrap;html=1;fillColor=#DAE8FC;" vertex="1" parent="1">
      <mxGeometry x="100" y="100" width="120" height="60" as="geometry"/>
    </mxCell>
    <!-- Backend -->
    <mxCell id="backend" value="Backend" style="rounded=1;whiteSpace=wrap;html=1;fillColor=#D5E8D4;" vertex="1" parent="1">
      <mxGeometry x="400" y="100" width="120" height="60" as="geometry"/>
    </mxCell>
    <!-- API Calls -->
    <!-- Sequence of Interactions -->
    <!-- Additional Notes -->
  </root>
</mxGraphModel></diagram></mxfile>